<svg width="287" height="36" viewBox="0 0 287 36" fill="none" xmlns="http://www.w3.org/2000/svg">
<path d="M58.128 31H53.36C52.9547 31 52.656 30.9147 52.464 30.744C52.2933 30.552 52.208 30.2533 52.208 29.848V9.112C52.208 8.70667 52.2933 8.41867 52.464 8.248C52.656 8.056 52.9547 7.96 53.36 7.96H58.512C58.8533 7.96 59.1307 8.03467 59.344 8.184C59.5787 8.33333 59.792 8.57867 59.984 8.92L62.864 14.136C62.9707 14.328 63.056 14.4667 63.12 14.552C63.2053 14.6373 63.312 14.68 63.44 14.68H63.728C63.856 14.68 63.952 14.6373 64.016 14.552C64.1013 14.4667 64.1973 14.328 64.304 14.136L67.152 8.92C67.344 8.57867 67.5467 8.33333 67.76 8.184C67.9947 8.03467 68.2827 7.96 68.624 7.96H73.808C74.2133 7.96 74.5013 8.056 74.672 8.248C74.864 8.41867 74.96 8.70667 74.96 9.112V29.848C74.96 30.2533 74.864 30.552 74.672 30.744C74.5013 30.9147 74.2133 31 73.808 31H68.88C68.4747 31 68.176 30.9147 67.984 30.744C67.8133 30.552 67.728 30.2533 67.728 29.848V18.584L65.84 22.072C65.648 22.4347 65.4133 22.7013 65.136 22.872C64.88 23.0213 64.5493 23.096 64.144 23.096H62.864C62.4587 23.096 62.1173 23.0213 61.84 22.872C61.584 22.7013 61.36 22.4347 61.168 22.072L59.28 18.584V29.848C59.28 30.2533 59.184 30.552 58.992 30.744C58.8213 30.9147 58.5333 31 58.128 31ZM80.3242 31C79.9189 31 79.6202 30.9147 79.4282 30.744C79.2576 30.552 79.1722 30.2533 79.1722 29.848V26.04C79.1722 25.6347 79.2576 25.3467 79.4282 25.176C79.6202 24.984 79.9189 24.888 80.3242 24.888H83.4922V14.136H80.3242C79.9189 14.136 79.6202 14.0507 79.4282 13.88C79.2576 13.688 79.1722 13.3893 79.1722 12.984V9.112C79.1722 8.70667 79.2576 8.41867 79.4282 8.248C79.6202 8.056 79.9189 7.96 80.3242 7.96H93.9563C94.3616 7.96 94.6496 8.056 94.8203 8.248C95.0123 8.41867 95.1082 8.70667 95.1082 9.112V12.984C95.1082 13.3893 95.0123 13.688 94.8203 13.88C94.6496 14.0507 94.3616 14.136 93.9563 14.136H90.8523V24.888H93.9563C94.3616 24.888 94.6496 24.984 94.8203 25.176C95.0123 25.3467 95.1082 25.6347 95.1082 26.04V29.848C95.1082 30.2533 95.0123 30.552 94.8203 30.744C94.6496 30.9147 94.3616 31 93.9563 31H80.3242ZM115.379 31H100.531C100.126 31 99.8272 30.9147 99.6352 30.744C99.4646 30.552 99.3792 30.2533 99.3792 29.848V9.112C99.3792 8.70667 99.4646 8.41867 99.6352 8.248C99.8272 8.056 100.126 7.96 100.531 7.96H115.379C115.785 7.96 116.073 8.056 116.243 8.248C116.435 8.41867 116.531 8.70667 116.531 9.112V12.856C116.531 13.2613 116.435 13.56 116.243 13.752C116.073 13.9227 115.785 14.008 115.379 14.008H106.547V16.472H112.787C113.193 16.472 113.481 16.568 113.651 16.76C113.843 16.9307 113.939 17.2187 113.939 17.624V21.048C113.939 21.4533 113.843 21.752 113.651 21.944C113.481 22.1147 113.193 22.2 112.787 22.2H106.547V24.952H115.379C115.785 24.952 116.073 25.048 116.243 25.24C116.435 25.4107 116.531 25.6987 116.531 26.104V29.848C116.531 30.2533 116.435 30.552 116.243 30.744C116.073 30.9147 115.785 31 115.379 31ZM127.869 13.72V17.816H130.269C130.823 17.816 131.197 17.6773 131.389 17.4C131.581 17.1013 131.677 16.7387 131.677 16.312V15.224C131.677 14.7973 131.581 14.4453 131.389 14.168C131.197 13.8693 130.823 13.72 130.269 13.72H127.869ZM126.717 31H121.789C121.383 31 121.085 30.9147 120.893 30.744C120.722 30.552 120.637 30.2533 120.637 29.848V9.112C120.637 8.70667 120.722 8.41867 120.893 8.248C121.085 8.056 121.383 7.96 121.789 7.96H132.445C134.834 7.96 136.477 8.46133 137.373 9.464C138.29 10.4453 138.749 11.7253 138.749 13.304V14.776C138.749 15.672 138.61 16.44 138.333 17.08C138.077 17.6987 137.618 18.1467 136.957 18.424C138.109 18.552 139.037 19.0213 139.741 19.832C140.466 20.6427 140.829 21.72 140.829 23.064V29.848C140.829 30.2533 140.733 30.552 140.541 30.744C140.37 30.9147 140.082 31 139.677 31H134.717C134.311 31 134.013 30.9147 133.821 30.744C133.65 30.552 133.565 30.2533 133.565 29.848V24.952C133.565 24.4827 133.469 24.1413 133.277 23.928C133.106 23.6933 132.797 23.576 132.349 23.576H127.869V29.848C127.869 30.2533 127.773 30.552 127.581 30.744C127.41 30.9147 127.122 31 126.717 31ZM156.674 31H145.89C145.485 31 145.186 30.9147 144.994 30.744C144.823 30.552 144.738 30.2533 144.738 29.848V9.112C144.738 8.70667 144.823 8.41867 144.994 8.248C145.186 8.056 145.485 7.96 145.89 7.96H156.674C159.341 7.96 161.314 8.49333 162.594 9.56C163.895 10.6267 164.546 12.2693 164.546 14.488V24.472C164.546 26.6907 163.895 28.3333 162.594 29.4C161.314 30.4667 159.341 31 156.674 31ZM152.002 14.072V24.952H155.81C156.322 24.952 156.695 24.824 156.93 24.568C157.186 24.312 157.314 23.9173 157.314 23.384V15.608C157.314 15.0747 157.186 14.6907 156.93 14.456C156.695 14.2 156.322 14.072 155.81 14.072H152.002ZM177.285 14.68L175.781 19.544H180.805L179.301 14.68C179.216 14.488 179.12 14.3493 179.013 14.264C178.928 14.1787 178.821 14.136 178.693 14.136H177.893C177.765 14.136 177.648 14.1787 177.541 14.264C177.456 14.3493 177.37 14.488 177.285 14.68ZM175.461 29.848C175.461 30.2533 175.365 30.552 175.173 30.744C175.002 30.9147 174.714 31 174.309 31H169.605C169.2 31 168.901 30.9147 168.709 30.744C168.538 30.552 168.453 30.2533 168.453 29.848V21.4C168.453 20.76 168.549 20.024 168.741 19.192C168.954 18.36 169.274 17.3893 169.701 16.28L172.485 9.016C172.613 8.65333 172.805 8.38667 173.061 8.216C173.338 8.04533 173.69 7.96 174.117 7.96H182.725C183.13 7.96 183.461 8.04533 183.717 8.216C183.994 8.38667 184.197 8.65333 184.325 9.016L187.109 16.28C187.536 17.3893 187.845 18.36 188.037 19.192C188.25 20.024 188.357 20.76 188.357 21.4V29.848C188.357 30.2533 188.261 30.552 188.069 30.744C187.898 30.9147 187.61 31 187.205 31H182.373C181.946 31 181.626 30.9147 181.413 30.744C181.221 30.552 181.125 30.2533 181.125 29.848V25.368H175.461V29.848ZM210.388 24.952C210.388 25.9333 210.249 26.8293 209.972 27.64C209.695 28.4293 209.204 29.112 208.5 29.688C207.817 30.2427 206.868 30.68 205.652 31C204.436 31.32 202.889 31.48 201.012 31.48C199.156 31.48 197.62 31.32 196.404 31C195.209 30.68 194.26 30.2427 193.556 29.688C192.873 29.112 192.393 28.4293 192.116 27.64C191.86 26.8293 191.732 25.9333 191.732 24.952V19.768C191.732 19.3627 191.817 19.0747 191.988 18.904C192.18 18.712 192.479 18.616 192.884 18.616H197.524C197.929 18.616 198.217 18.712 198.388 18.904C198.58 19.0747 198.676 19.3627 198.676 19.768V23.672C198.676 24.0987 198.804 24.4613 199.06 24.76C199.337 25.0373 199.967 25.176 200.948 25.176C201.865 25.176 202.441 25.0373 202.676 24.76C202.932 24.4613 203.06 24.0987 203.06 23.672V9.112C203.06 8.70667 203.145 8.41867 203.316 8.248C203.508 8.056 203.807 7.96 204.212 7.96H209.236C209.641 7.96 209.929 8.056 210.1 8.248C210.292 8.41867 210.388 8.70667 210.388 9.112V24.952ZM234.499 24.952C234.499 25.9333 234.35 26.8293 234.051 27.64C233.774 28.4293 233.262 29.112 232.515 29.688C231.79 30.2427 230.777 30.68 229.475 31C228.195 31.32 226.563 31.48 224.579 31.48C222.595 31.48 220.953 31.32 219.651 31C218.35 30.68 217.326 30.2427 216.579 29.688C215.854 29.112 215.342 28.4293 215.043 27.64C214.766 26.8293 214.627 25.9333 214.627 24.952V14.04C214.627 13.0587 214.766 12.1733 215.043 11.384C215.342 10.5733 215.854 9.88 216.579 9.304C217.326 8.728 218.35 8.28 219.651 7.96C220.953 7.64 222.595 7.48 224.579 7.48C226.563 7.48 228.195 7.64 229.475 7.96C230.777 8.28 231.79 8.728 232.515 9.304C233.262 9.88 233.774 10.5733 234.051 11.384C234.35 12.1733 234.499 13.0587 234.499 14.04V24.952ZM221.891 23.8C221.891 24.2267 222.051 24.5893 222.371 24.888C222.691 25.1653 223.427 25.304 224.579 25.304C225.731 25.304 226.467 25.1653 226.787 24.888C227.107 24.5893 227.267 24.2267 227.267 23.8V15.192C227.267 14.7867 227.107 14.4453 226.787 14.168C226.467 13.8693 225.731 13.72 224.579 13.72C223.427 13.72 222.691 13.8693 222.371 14.168C222.051 14.4453 221.891 14.7867 221.891 15.192V23.8ZM252.333 31H240.045C239.64 31 239.341 30.9147 239.149 30.744C238.978 30.552 238.893 30.2533 238.893 29.848V9.112C238.893 8.70667 238.978 8.41867 239.149 8.248C239.341 8.056 239.64 7.96 240.045 7.96H250.253C252.344 7.96 253.89 8.36533 254.893 9.176C255.896 9.96533 256.397 11.192 256.397 12.856V14.392C256.397 15.288 256.237 16.024 255.917 16.6C255.618 17.1547 255.149 17.5707 254.509 17.848C255.874 17.976 256.888 18.4453 257.549 19.256C258.21 20.0667 258.541 21.2507 258.541 22.808V25.752C258.541 27.544 258.029 28.8667 257.005 29.72C256.002 30.5733 254.445 31 252.333 31ZM246.093 13.4V16.856H248.813C249.218 16.856 249.517 16.7493 249.709 16.536C249.922 16.3227 250.029 16.0027 250.029 15.576V14.68C250.029 14.2533 249.922 13.9333 249.709 13.72C249.517 13.5067 249.218 13.4 248.813 13.4H246.093ZM246.093 21.784V25.56H250.253C250.658 25.56 250.957 25.4533 251.149 25.24C251.362 25.0267 251.469 24.7067 251.469 24.28V23.032C251.469 22.6053 251.362 22.296 251.149 22.104C250.957 21.8907 250.658 21.784 250.253 21.784H246.093ZM273.089 31H262.977C262.571 31 262.273 30.9147 262.081 30.744C261.91 30.552 261.825 30.2533 261.825 29.848V26.104C261.825 25.6987 261.91 25.4107 262.081 25.24C262.273 25.048 262.571 24.952 262.977 24.952H271.585C271.862 24.952 272.065 24.8667 272.193 24.696C272.342 24.504 272.417 24.28 272.417 24.024C272.417 23.6613 272.342 23.3947 272.193 23.224C272.065 23.0533 271.862 22.9573 271.585 22.936L266.785 22.264C265.291 22.0507 264.086 21.56 263.169 20.792C262.273 20.024 261.825 18.744 261.825 16.952V13.592C261.825 11.7787 262.411 10.392 263.585 9.432C264.758 8.45067 266.379 7.96 268.449 7.96H277.409C277.814 7.96 278.102 8.056 278.273 8.248C278.465 8.41867 278.561 8.70667 278.561 9.112V12.92C278.561 13.3253 278.465 13.624 278.273 13.816C278.102 13.9867 277.814 14.072 277.409 14.072H269.953C269.675 14.072 269.462 14.168 269.313 14.36C269.163 14.5307 269.089 14.7547 269.089 15.032C269.089 15.3093 269.163 15.544 269.313 15.736C269.462 15.928 269.675 16.0347 269.953 16.056L274.721 16.696C276.214 16.9093 277.419 17.4 278.337 18.168C279.254 18.936 279.713 20.216 279.713 22.008V25.368C279.713 27.1813 279.115 28.5787 277.921 29.56C276.747 30.52 275.137 31 273.089 31Z" fill="white"/>
<path d="M23.4893 35.0494C17.3371 35.0494 11.2036 35.0467 5.07017 35.0521C4.08961 35.053 3.17331 34.8409 2.34169 34.3169C1.30381 33.6628 0.575879 32.7569 0.226775 31.575C-0.217108 30.0721 -0.0133692 28.6507 0.873378 27.3549C1.61474 26.2714 2.65058 25.6039 3.9363 25.3286C3.99669 25.3157 4.05702 25.3025 4.11715 25.2895C2.29197 23.6903 1.65794 21.7243 2.59224 19.477C3.57275 17.1187 5.52415 16.1903 8.05968 16.3347C7.87967 16.1366 7.71763 15.9705 7.56927 15.7931C6.3251 14.3048 6.22194 12.2151 7.34426 10.6313C8.23671 9.37197 9.47887 8.75694 11.0232 8.73384C11.6783 8.72403 12.3417 8.73908 12.986 8.6414C14.204 8.45675 15.2291 7.86863 16.0642 6.95837C17.1327 5.79379 17.586 4.411 17.4814 2.84767C17.4211 1.94738 17.1052 1.12086 16.6378 0.351722C16.5925 0.277143 16.5479 0.202137 16.504 0.126704C16.4983 0.116918 16.4991 0.103363 16.4918 0.0647195C18.9291 -0.232946 20.9943 0.48876 22.5567 2.38372C24.1187 4.27824 24.4341 6.44901 23.6821 8.78978C25.7453 8.76405 27.3375 9.58023 28.1203 11.5281C28.8617 13.3729 28.3774 15.0272 26.9574 16.453C27.0449 16.453 27.1139 16.4532 27.1829 16.453C27.8452 16.4509 28.5073 16.4422 29.1545 16.6231C30.3582 16.9597 31.3305 17.6279 32.0044 18.6823C33.0103 20.2564 33.0803 21.9053 32.2876 23.5853C32.022 24.1484 31.6295 24.6303 31.1543 25.0389C31.0651 25.1156 30.9762 25.1927 30.8917 25.2656C31.2201 25.3654 31.5492 25.4422 31.8606 25.564C33.975 26.3909 35.2123 28.4401 34.9699 30.6952C34.7462 32.7754 33.1355 34.5494 31.0792 34.9532C30.7081 35.0261 30.3214 35.0439 29.9417 35.0453C27.7972 35.0537 25.6526 35.0494 23.4893 35.0494ZM15.7387 30.4327C16.5195 30.628 17.3086 30.7433 18.1144 30.6457C19.4426 30.4849 20.6746 30.04 21.8132 29.3441C22.6035 28.8612 23.3153 28.2855 23.8108 27.4837C23.899 27.341 23.982 27.1903 24.0363 27.0327C24.1681 26.6499 23.8502 26.2944 23.4149 26.296C20.4448 26.3064 17.4747 26.3014 14.5045 26.3015C13.5228 26.3015 12.5411 26.2984 11.5594 26.3028C11.064 26.305 10.8246 26.7036 11.0248 27.1554C11.2576 27.6806 11.6103 28.116 12.0284 28.496C13.0861 29.4573 14.3387 30.0556 15.7387 30.4327ZM14.8477 18.3801C13.7843 17.0917 11.7522 17.3573 11.1244 18.8667C10.7505 19.7654 10.9837 20.8072 11.6907 21.3965C12.4473 22.0272 13.5224 22.096 14.326 21.5756C15.3659 20.9022 15.6572 19.4337 14.8477 18.3801ZM21.0394 21.7564C21.3253 21.8136 21.6111 21.919 21.8971 21.9195C23.1197 21.9218 24.0872 20.9255 24.069 19.7166C24.0505 18.4886 23.0624 17.5334 21.8331 17.5552C20.7775 17.574 19.938 18.3019 19.7235 19.3843C19.5349 20.3366 20.0868 21.347 21.0394 21.7564Z" fill="white"/>
</svg>
